HIERARCHY
ROOT Hips
{
	OFFSET 0.000000 0.000000 0.000000 
	CHANNELS 6 Xposition Yposition Zposition Zrotation Yrotation Xrotation
	JOINT LeftUpLeg
	{
		OFFSET 1.363060 -1.794630 0.839290 
		CHANNELS 3 Zrotation Yrotation Xrotation
		JOINT LeftLeg
		{
			OFFSET 2.448110 -6.726130 0.000000 
			CHANNELS 3 Zrotation Yrotation Xrotation
			JOINT LeftFoot
			{
				OFFSET 2.562200 -7.039590 0.000000 
				CHANNELS 3 Zrotation Yrotation Xrotation
				JOINT LeftToeBase
				{
					OFFSET 0.157640 -0.433110 2.322550 
					CHANNELS 3 Zrotation Yrotation Xrotation
					End Site
					{
						OFFSET 0.000000 0.000000 0.000000 
					}
				}
			}
		}
	}
	JOINT RightUpLeg
	{
		OFFSET -1.305520 -1.794630 0.839290 
		CHANNELS 3 Zrotation Yrotation Xrotation
		JOINT RightLeg
		{
			OFFSET -2.542530 -6.985550 0.000000 
			CHANNELS 3 Zrotation Yrotation Xrotation
			JOINT RightFoot
			{
				OFFSET -2.568260 -7.056230 0.000000 
				CHANNELS 3 Zrotation Yrotation Xrotation
				JOINT RightToeBase
				{
					OFFSET -0.164730 -0.452590 2.363150 
					CHANNELS 3 Zrotation Yrotation Xrotation
					End Site
					{
						OFFSET 0.000000 0.000000 0.000000 
					}
				}
			}
		}
	}
	JOINT Spine
	{
		OFFSET 0.028270 2.035590 -0.193380 
		CHANNELS 3 Zrotation Yrotation Xrotation
		JOINT Spine1
		{
			OFFSET 0.056720 2.048850 -0.042750 
			CHANNELS 3 Zrotation Yrotation Xrotation
			JOINT Neck1
			{
				OFFSET -0.054170 1.746240 0.172020 
				CHANNELS 3 Zrotation Yrotation Xrotation
				JOINT Head
				{
					OFFSET 0.104070 1.761360 -0.123970 
					CHANNELS 3 Zrotation Yrotation Xrotation
					End Site
					{
						OFFSET 0.000000 0.000000 0.000000 
					}
				}
			}
			JOINT LeftArm
			{
				OFFSET 3.362410 1.200890 -0.311210 
				CHANNELS 3 Zrotation Yrotation Xrotation
				JOINT LeftForeArm
				{
					OFFSET 4.983000 -0.000000 -0.000000 
					CHANNELS 3 Zrotation Yrotation Xrotation
					JOINT LeftHand
					{
						OFFSET 3.483560 -0.000000 -0.000000 
						CHANNELS 3 Zrotation Yrotation Xrotation
						JOINT LeftHandIndex1
						{
							OFFSET 0.715260 -0.000000 -0.000000 
							CHANNELS 3 Zrotation Yrotation Xrotation
							End Site
							{
								OFFSET 0.000000 0.000000 0.000000 
							}
						}
					}
				}
			}
			JOINT RightArm
			{
				OFFSET -3.136600 1.374050 -0.404650 
				CHANNELS 3 Zrotation Yrotation Xrotation
				JOINT RightForeArm
				{
					OFFSET -5.241900 -0.000000 -0.000000 
					CHANNELS 3 Zrotation Yrotation Xrotation
					JOINT RightHand
					{
						OFFSET -3.444170 -0.000000 -0.000000 
						CHANNELS 3 Zrotation Yrotation Xrotation
						JOINT RightHandIndex1
						{
							OFFSET -0.622530 -0.000000 -0.000000 
							CHANNELS 3 Zrotation Yrotation Xrotation
							End Site
							{
								OFFSET 0.000000 0.000000 0.000000 
							}
						}
					}
				}
			}
		}
	}
}
MOTION
Frames: 12
Frame Time: 0.041667
10.688283 18.122703 -0.646579 -84.006644 85.722714 -83.690844 -2.449622 -7.302887 -8.871169 -1.234277 8.517209 24.116880 6.339543 -8.797667 7.529724 0.013600 -0.753400 -2.070600 11.973272 14.024732 -7.470495 2.647797 -7.081712 20.422501 -3.010274 5.526929 9.021632 -0.000100 -0.071600 0.196800 0.137622 4.762352 5.400380 -2.242171 3.246829 -0.418127 8.119412 -2.381099 -6.808082 0.062100 -1.940600 -3.530000 -73.023739 33.229870 46.370135 22.230551 -35.341551 -9.656414 1.025673 -1.699608 -3.080365 -7.125000 0.000000 0.000000 75.981112 -21.130314 42.336316 -25.570438 33.642416 -8.087308 0.827000 0.196419 3.227175 7.125000 0.000000 0.000000 
10.705738 18.118261 -0.641415 -83.951873 85.660127 -83.718316 -2.413456 -7.355175 -8.742242 -1.214220 8.537880 24.171416 6.304299 -8.705728 7.412786 0.015100 -0.792400 -2.177900 12.101788 14.077116 -7.311855 2.644438 -7.090366 20.450952 -2.998388 5.523753 8.901777 -0.000100 -0.077800 0.213600 0.109400 4.756643 5.401064 -2.255784 3.243423 -0.429707 8.209385 -2.399571 -6.657966 0.085400 -1.943000 -3.470000 -73.124559 33.361523 46.301799 22.185325 -35.307398 -9.632738 1.032323 -1.700612 -3.090291 -7.125000 0.000000 0.000000 76.165608 -21.348505 41.951801 -25.211038 33.321035 -7.898424 0.824943 0.211764 3.745744 7.125000 0.000000 0.000000 
10.723504 18.113613 -0.636663 -83.762393 85.599498 -83.615302 -2.380612 -7.415715 -8.604307 -1.194265 8.558922 24.227859 6.267255 -8.611912 7.296233 0.016300 -0.823600 -2.263700 12.227814 14.134253 -7.147109 2.641580 -7.098291 20.477079 -2.988739 5.527567 8.782713 -0.000200 -0.083400 0.229300 0.080816 4.755178 5.395804 -2.262836 3.240669 -0.446549 8.280514 -2.409542 -6.496522 0.102100 -1.939600 -3.406000 -73.211360 33.462861 46.207486 22.145736 -35.274963 -9.610285 1.036265 -1.703118 -3.076726 -7.125000 0.000000 0.000000 76.344820 -21.577791 41.567795 -24.892993 33.035613 -7.734313 0.823344 0.226683 4.224343 7.125000 0.000000 0.000000 
10.741269 18.108656 -0.632325 -83.431030 85.534283 -83.373188 -2.344624 -7.480750 -8.461883 -1.174088 8.579947 24.285532 6.231528 -8.522076 7.183096 0.017100 -0.844000 -2.319700 12.357139 14.191828 -6.980337 2.639612 -7.105097 20.500509 -2.982563 5.543230 8.666426 -0.000200 -0.089100 0.244800 0.051359 4.757559 5.383468 -2.268328 3.238468 -0.470204 8.321309 -2.421502 -6.307853 0.106200 -1.934100 -3.329600 -73.275977 33.542330 46.098387 22.120423 -35.253963 -9.595302 1.037641 -1.707042 -3.055514 -7.125000 0.000000 0.000000 76.522817 -21.819704 41.190790 -24.617070 32.787716 -7.594551 0.822415 0.240172 4.644697 7.125000 0.000000 0.000000 
10.758931 18.103698 -0.628194 -82.995666 85.463601 -83.026199 -2.303501 -7.548237 -8.318544 -1.153942 8.600441 24.342696 6.198082 -8.437594 7.075184 0.017500 -0.854800 -2.349500 12.489897 14.247795 -6.814764 2.639047 -7.110064 20.519080 -2.979515 5.569104 8.555712 -0.000200 -0.094200 0.258900 0.021769 4.764141 5.364188 -2.271246 3.237396 -0.497947 8.342561 -2.426797 -6.128190 0.104000 -1.925300 -3.257600 -73.319691 33.593162 45.969832 22.102790 -35.237516 -9.583569 1.036783 -1.712046 -3.020542 -7.125000 0.000000 0.000000 76.698957 -22.072172 40.829521 -24.382610 32.577085 -7.477772 0.821915 0.252744 4.993572 7.125000 0.000000 0.000000 
10.776490 18.098637 -0.624269 -82.497292 85.386893 -82.612379 -2.256668 -7.615809 -8.177348 -1.133697 8.620478 24.399306 6.167867 -8.360495 6.970255 0.017800 -0.860600 -2.365300 12.626093 14.298909 -6.651597 2.640222 -7.112216 20.529850 -2.979165 5.604137 8.451883 -0.000200 -0.101000 0.277500 -0.008343 4.772576 5.338815 -2.271281 3.236455 -0.527666 8.345094 -2.419626 -5.969051 0.096700 -1.910900 -3.195500 -73.342998 33.622221 45.814288 22.099499 -35.233147 -9.580538 1.033950 -1.717738 -2.974361 -7.125000 0.000000 0.000000 76.876817 -22.335112 40.476135 -24.192354 32.406570 -7.384632 0.821360 0.264636 5.273610 7.125000 0.000000 0.000000 
10.793842 18.093679 -0.620241 -81.953003 85.303914 -82.147685 -2.203190 -7.679010 -8.040481 -1.113532 8.639559 24.453552 6.142250 -8.293430 6.870678 0.017700 -0.857800 -2.357800 12.765411 14.343431 -6.491997 2.643736 -7.110553 20.530377 -2.982556 5.651260 8.358252 -0.000300 -0.115800 0.318100 -0.039687 4.783351 5.308629 -2.269741 3.236105 -0.555648 8.346250 -2.399910 -5.841524 0.091200 -1.892300 -3.146700 -73.341162 33.625084 45.635953 22.107387 -35.238061 -9.584399 1.029452 -1.723760 -2.924667 -7.125000 0.000000 0.000000 77.055092 -22.603408 40.138909 -24.044570 32.275015 -7.313729 0.820621 0.275736 5.472113 7.125000 0.000000 0.000000 
10.810782 18.088928 -0.616626 -81.367754 85.209302 -81.635360 -2.139382 -7.735894 -7.910540 -1.093210 8.657197 24.504346 6.119564 -8.230972 6.776205 0.017400 -0.852500 -2.343100 12.911499 14.378660 -6.338699 2.650205 -7.104258 20.518376 -2.990133 5.712960 8.278072 -0.000400 -0.130700 0.359000 -0.072250 4.795106 5.274297 -2.270176 3.236160 -0.580211 8.347388 -2.367572 -5.754557 0.088300 -1.870100 -3.114900 -73.314950 33.606115 45.431259 22.132603 -35.258642 -9.600075 1.023915 -1.729885 -2.878982 -7.125000 0.000000 0.000000 77.234229 -22.871164 39.818450 -23.937575 32.180888 -7.263741 0.819899 0.286168 5.587502 7.125000 0.000000 0.000000 
10.827514 18.084383 -0.612804 -80.802437 85.108382 -81.133316 -2.068546 -7.788445 -7.787969 -1.073331 8.673228 24.550585 6.099916 -8.173787 6.684576 0.017200 -0.847000 -2.327900 13.059575 14.409079 -6.189572 2.659589 -7.092854 20.492213 -2.999299 5.779276 8.209539 -0.000500 -0.151300 0.415800 -0.106646 4.804857 5.237483 -2.267805 3.234826 -0.599823 8.343642 -2.329531 -5.693938 0.084400 -1.846700 -3.092400 -73.265525 33.564029 45.200054 22.175519 -35.295023 -9.627489 1.017200 -1.736044 -2.846231 -7.125000 0.000000 0.000000 77.411608 -23.135224 39.516784 -23.873176 32.126219 -7.235217 0.818718 0.295973 5.625927 7.125000 0.000000 0.000000 
10.843833 18.080355 -0.609189 -80.230321 84.999952 -80.619368 -1.991700 -7.837422 -7.669586 -1.053521 8.688017 24.592776 6.080354 -8.114948 6.594365 0.017000 -0.842600 -2.315800 13.210615 14.431452 -6.044553 2.671974 -7.076088 20.451601 -3.011568 5.855892 8.156337 -0.000700 -0.171500 0.471200 -0.144470 4.814733 5.198555 -2.268690 3.233643 -0.616454 8.357725 -2.280911 -5.671404 0.088800 -1.821000 -3.084200 -73.186627 33.501110 44.946951 22.239257 -35.350803 -9.669520 1.010142 -1.742651 -2.828992 -7.125000 0.000000 0.000000 77.587358 -23.387290 39.237115 -23.843408 32.103485 -7.223972 0.817521 0.304122 5.584275 7.125000 0.000000 0.000000 
10.859636 18.076533 -0.605781 -79.651185 84.885895 -80.091633 -1.910930 -7.883161 -7.556718 -1.034141 8.701123 24.630128 6.058419 -8.048667 6.504352 0.017100 -0.843500 -2.318400 13.361600 14.447386 -5.905380 2.687302 -7.054204 20.397044 -3.026088 5.939684 8.118844 -0.000900 -0.195500 0.537100 -0.185648 4.822177 5.158435 -2.269588 3.231261 -0.628510 8.382153 -2.224088 -5.677235 0.097700 -1.793600 -3.086400 -73.087963 33.419909 44.661001 22.326865 -35.428385 -9.728270 1.002962 -1.749601 -2.827668 -7.125000 0.000000 0.000000 77.756726 -23.620939 38.982824 -23.846461 32.110753 -7.228848 0.816316 0.310389 5.470103 7.125000 0.000000 0.000000 
10.875026 18.073228 -0.602579 -79.070005 84.766103 -79.554135 -1.826723 -7.929434 -7.447731 -1.014851 8.713388 24.663928 6.032477 -7.970756 6.412583 0.017300 -0.848300 -2.331500 13.513286 14.456106 -5.772237 2.705399 -7.027375 20.328729 -3.042085 6.028161 8.096294 -0.001100 -0.215800 0.592900 -0.229028 4.826892 5.118099 -2.268190 3.227159 -0.636452 8.421580 -2.160045 -5.697396 0.112100 -1.763800 -3.092700 -72.974094 33.319933 44.342803 22.438953 -35.527788 -9.803906 0.995951 -1.756992 -2.849428 -7.125000 0.000000 0.000000 77.913824 -23.829690 38.758825 -23.875946 32.142119 -7.246641 0.814958 0.315296 5.289614 7.125000 0.000000 0.000000 
